<?xml version="1.0" encoding="UTF-8"?>
<svg id="Layer_1" data-name="Layer 1" xmlns="http://www.w3.org/2000/svg" xmlns:xlink="http://www.w3.org/1999/xlink" viewBox="0 0 2400 2400">
  <defs>
    <style>
      .cls-1 {
        fill: url(#linear-gradient-7);
      }

      .cls-2 {
        fill: url(#linear-gradient-5);
      }

      .cls-3 {
        fill: url(#linear-gradient-6);
      }

      .cls-4 {
        fill: url(#linear-gradient-4);
      }

      .cls-5 {
        fill: url(#linear-gradient-3);
      }

      .cls-6 {
        fill: url(#linear-gradient-2);
      }

      .cls-7 {
        fill: url(#linear-gradient);
      }
    </style>
    <linearGradient id="linear-gradient" x1="600.023" y1="1198.8503" x2="1774.682" y2="1198.8503" gradientUnits="userSpaceOnUse">
      <stop offset="0" stop-color="#709cff"/>
      <stop offset=".1705" stop-color="#638eff"/>
      <stop offset=".5911" stop-color="#2441ff"/>
      <stop offset="1" stop-color="#2340ff"/>
    </linearGradient>
    <linearGradient id="linear-gradient-2" x1="920.1455" y1="1153.0699" x2="1269.2338" y2="1071.4649" gradientUnits="userSpaceOnUse">
      <stop offset="0" stop-color="#6e9aff"/>
      <stop offset=".4278" stop-color="#5c87ff"/>
      <stop offset="1" stop-color="#2340ff"/>
    </linearGradient>
    <linearGradient id="linear-gradient-3" x1="881.0201" y1="1198.8503" x2="1722.0776" y2="1198.8503" gradientUnits="userSpaceOnUse">
      <stop offset="0" stop-color="#709cff"/>
      <stop offset=".5911" stop-color="#709cff"/>
      <stop offset="1" stop-color="#2f50ff"/>
    </linearGradient>
    <linearGradient id="linear-gradient-4" x1="1787.8198" y1="717.6735" x2="703.8608" y2="2025.4936" gradientUnits="userSpaceOnUse">
      <stop offset=".1513" stop-color="#648fff"/>
      <stop offset=".4191" stop-color="#3f66ff"/>
      <stop offset="1" stop-color="#1c36ff"/>
    </linearGradient>
    <linearGradient id="linear-gradient-5" x1="1425.4843" y1="1373.249" x2="1425.4843" y2="1970.9998" gradientUnits="userSpaceOnUse">
      <stop offset="0" stop-color="#5075ff"/>
      <stop offset=".497" stop-color="#0d25ff"/>
      <stop offset="1" stop-color="#0006f3"/>
    </linearGradient>
    <linearGradient id="linear-gradient-6" x1="1442.0429" y1="1379.7493" x2="1442.0429" y2="2004.2664" gradientUnits="userSpaceOnUse">
      <stop offset="0" stop-color="#6792ff"/>
      <stop offset=".497" stop-color="#223eff"/>
      <stop offset="1" stop-color="#041aff"/>
    </linearGradient>
    <linearGradient id="linear-gradient-7" x1="1340.3699" y1="1395.1435" x2="1565.2975" y2="1997.3121" gradientUnits="userSpaceOnUse">
      <stop offset=".1513" stop-color="#648fff"/>
      <stop offset=".4191" stop-color="#3353ff"/>
      <stop offset="1" stop-color="#0006f3"/>
    </linearGradient>
  </defs>
  <g>
    <path class="cls-7" d="M655.0596,1976.3301s76.5303-373.6481,97.9138-476.0637,39.3906-270.1071,184.5732-393.9062c145.1826-123.7991,294.3591-117.5196,294.3591-117.5196,0,0,94.4547-1.503,108.8804-1.9401s69.9427-4.8086,97.4826-56.3913,8.7428-105.7883-24.0428-135.0768-62.0159-26.3152-62.0159-26.3152h-394.2207s-143.236,5.1954-243.4541-91.9104-112.0451-202.9261-112.0451-255.8363h716.4661c70.1758,0,192.835,12.0766,287.5824,85.9012,86.9326,67.7355,190.9714,174.9803,190.9714,368.6316s-114.4048,302.6205-114.4048,302.6205c0,0-122.4463,154.0228-308.491,154.0228-172.6998,0-241.6212,97.4407-249.5433,108.5315s-48.1185,82.5414-57.1916,168.7357-86.6847,356.4993-412.8198,366.5162Z"/>
    <path class="cls-6" d="M1606.5387,507.2717c-94.7476-73.8247-217.4067-85.9012-287.5825-85.9012h-572.2673s21.6863,152.3383,150.4482,232.3063,247.3586,75.9019,247.3586,75.9019c0,0,270.469-18.4404,303.2075,120.3623,0,0,81.353,96.0427,38.9702,133.1279-42.3831,37.0851-347.894,100.6597-452.0857,203.0853-104.1877,102.4217-379.5066,790.1221-379.5281,790.1757l-.0002.0003c326.1353-10.0169,403.7468-280.3219,412.8198-366.5162s49.2695-157.6449,57.1917-168.7357c7.9219-11.0908,76.8433-108.5315,249.5432-108.5315,186.0447,0,308.491-154.0228,308.491-154.0228,0,0,114.4048-108.9692,114.4048-302.6206s-104.0388-300.896-190.9712-368.6316Z"/>
    <path class="cls-5" d="M1606.5387,507.2717c-94.7476-73.8247-217.4067-85.9012-287.5825-85.9012h-444.5742c56.1433,303.3824,393.1409,284.2404,425.6167,284.2404,40.5786,0,80.679,15.4492,112.4819,51.4972,31.8018,36.0468,35.2222,92.8287,35.2227,92.8329,5.9641,21.9047,5.4893,46.4788-4.7988,70.8547v.0005c-15.0188,107.6133-205.2683,90.2816-271.9824,95.7964-63.5181,5.2506-155.0049,39.4689-236.0957,119.1243-81.0903,79.6553-107.2268,154.6294-128.9832,222.074-21.7527,67.4335-150.7407,618.3557-150.7832,618.5372,0,0-.0005.0021-.0005.0021,326.1353-10.0169,403.7468-280.3219,412.8198-366.5162s49.2695-157.6449,57.1917-168.7357c7.9219-11.0908,76.8433-108.5315,249.5432-108.5315,186.0447,0,308.491-154.0228,308.491-154.0228,0,0,114.4048-108.9692,114.4048-302.6206s-104.0388-300.896-190.9712-368.6316Z"/>
    <path class="cls-4" d="M1735.102,645.1539c41.5437,212.4097-8.9226,356.162-99.3423,436.9185-90.4209,80.7575-233.9897,85.5892-305.7742,88.3501-71.7847,2.7609-144.2593,19.3266-166.3467,28.4278-22.0876,9.1013-82.1382,30.9324-124.9326,86.8415-42.7947,55.9091-65.5725,109.0572-78.687,151.1615-13.1143,42.1044-46.2456,164.9662-60.7407,202.239-14.4949,37.2727-49.0066,123.5521-113.8887,215.3534-64.8821,91.8013-130.3303,121.8845-130.3303,121.8845,326.1353-10.0169,403.7468-280.3219,412.8198-366.5162s49.2695-157.6449,57.1917-168.7357c7.9219-11.0908,76.8433-108.5315,249.5432-108.5315,186.0447,0,308.491-154.0228,308.491-154.0228,0,0,114.4048-108.9692,114.4048-302.6206,0-96.4033-25.7871-171.3875-62.408-230.7494Z"/>
  </g>
  <path class="cls-2" d="M1410.6801,1365.4456s-58.3091,15.3933-98.7174,33.3171c-15.2063,6.745-81.4198,40.9371-91.4356,141.0951s32.9091,180.7614,49.1251,209.378,114.9747,223.9052,362.2863,227.0943l-221.2584-610.8846Z"/>
  <path class="cls-3" d="M1264.6255,1497.0405c-35.9827,95.4924,17.2993,204.8243,17.2993,204.8243,0,0,104.532,230.8638,350.0137,274.4653l-221.2583-610.8846c-.0024.0007-110.0725,36.1035-146.0547,131.5949Z"/>
  <path class="cls-1" d="M1342.2229,1556.4598c10.3879,132.8289,77.2546,333.0665,289.7156,419.8704l-221.2583-610.8846s-78.9882,56.3571-68.4573,191.0142Z"/>
</svg>